<?xml version="1.0" encoding="UTF-8" standalone="no"?>
<svg width="200px" height="100px" viewBox="0 0 200 100" version="1.1" xmlns="http://www.w3.org/2000/svg" xmlns:xlink="http://www.w3.org/1999/xlink" style="background: #A0D9E2;">
    <!-- Generator: Sketch 39.1 (31720) - http://www.bohemiancoding.com/sketch -->
    <title>loading-image</title>
    <desc>Created with Sketch.</desc>
    <defs></defs>
    <g id="Loading" stroke="none" stroke-width="1" fill="none" fill-rule="evenodd">
        <g id="loading-image">
            <g id="Group" transform="translate(85.000000, 36.000000)">
                <rect id="Rectangle-14" fill="#61C0D1" transform="translate(18.011591, 11.556666) rotate(32.000000) translate(-18.011591, -11.556666) " x="16.7481113" y="9.62961292" width="2.52695922" height="3.85410572"></rect>
                <rect id="Rectangle-14" fill="#659CC9" transform="translate(20.357143, 13.927993) rotate(-23.000000) translate(-20.357143, -13.927993) " x="18.5693452" y="12.6366138" width="3.57559524" height="2.58275891"></rect>
                <path d="M18.4821429,4.62135922 L1.99161703,4.62135922 C0.89784041,4.62135922 0,5.51376754 0,6.61460899 L0,26.0067502 C0,27.1120774 0.891677316,28 1.99161703,28 L28.008383,28 C29.1021596,28 30,27.1075917 30,26.0067502 L30,6.61460899 C30,5.50928186 29.1083227,4.62135922 28.008383,4.62135922 L27.8571429,4.62135922 L27.8571429,2.00553225 C27.8571429,0.8862307 26.9618584,0 25.8574692,0 L20.4818166,0 C19.3810573,0 18.4821429,0.897907371 18.4821429,2.00553225 L18.4821429,4.62135922 Z M13.6849322,9.96659748 C13.6849322,9.41667447 14.1270943,8.97087379 14.693324,8.97087379 L15.0872547,8.97087379 C15.6441741,8.97087379 16.0956465,9.41210156 16.0956465,9.96659748 L16.0956465,10.9654414 C16.0956465,11.5153644 15.6534843,11.961165 15.0872547,11.961165 L14.693324,11.961165 C14.1364046,11.961165 13.6849322,11.5199373 13.6849322,10.9654414 L13.6849322,9.96659748 Z M17.3373156,10.3400807 C17.6368251,9.87887649 18.2504539,9.74581535 18.7253341,10.0542061 L19.0557121,10.2687561 C19.5227841,10.5720762 19.6611108,11.1880104 19.3591107,11.6530498 L18.8151013,12.4907508 C18.5155918,12.951955 17.9019629,13.0850162 17.4270828,12.7766254 L17.0967047,12.5620754 C16.6296328,12.2587553 16.4913061,11.6428211 16.7933062,11.1777817 L17.3373156,10.3400807 Z M20.1938448,12.6586888 C20.6922443,12.4262813 21.2831427,12.6386128 21.5224417,13.1517911 L21.688924,13.5088135 C21.9242883,14.0135539 21.7152006,14.6091978 21.2126567,14.8435379 L20.3073967,15.2656676 C19.8089972,15.4980751 19.2180987,15.2857436 18.9787998,14.7725652 L18.8123175,14.4155428 C18.5769531,13.9108024 18.7860408,13.3151585 19.2885848,13.0808184 L20.1938448,12.6586888 Z M21.3854806,16.173607 C21.9300518,16.2501415 22.3099769,16.750044 22.2311729,17.3107631 L22.1763484,17.7008601 C22.0988402,18.2523596 21.5990736,18.6380313 21.049974,18.5608604 L20.0608508,18.4218482 C19.5162796,18.3453137 19.1363545,17.8454111 19.2151584,17.284692 L19.269983,16.894595 C19.3474912,16.3430955 19.8472578,15.9574239 20.3963574,16.0345948 L21.3854806,16.173607 Z M20.5115176,19.7810063 C20.9265497,20.1417882 20.9729153,20.7679638 20.6014352,21.1953028 L20.3429935,21.492606 C19.9776214,21.9129184 19.3484301,21.9641775 18.9299467,21.6003955 L18.1761097,20.9450949 C17.7610775,20.584313 17.7147119,19.9581374 18.086192,19.5307984 L18.3446338,19.2334952 C18.7100058,18.8131828 19.3391971,18.7619237 19.7576805,19.1257057 L20.5115176,19.7810063 Z M17.846822,22.3327626 C17.9984014,22.8613825 17.6962471,23.41179 17.1519523,23.5678641 L16.7732818,23.6764461 C16.2379365,23.8299539 15.6823345,23.5302612 15.5294947,22.9972455 L15.254176,22.0370951 C15.1025967,21.5084752 15.4047509,20.9580677 15.9490458,20.8019936 L16.3277163,20.6934116 C16.8630616,20.5399038 17.4186636,20.8395965 17.5715034,21.3726122 L17.846822,22.3327626 Z M14.2510839,22.9972455 C14.0995046,23.5258654 13.5515917,23.8325201 13.0072969,23.6764461 L12.6286264,23.5678641 C12.0932811,23.4143563 11.7809168,22.8657783 11.9337566,22.3327626 L12.2090753,21.3726122 C12.3606546,20.8439923 12.9085675,20.5373376 13.4528624,20.6934116 L13.8315328,20.8019936 C14.3668781,20.9555014 14.6792424,21.5040794 14.5264026,22.0370951 L14.2510839,22.9972455 Z M10.850632,21.6003955 C10.4355998,21.9611774 9.80906529,21.919945 9.43758521,21.492606 L9.17914344,21.1953028 C8.81377142,20.7749903 8.85057772,20.1447883 9.2690611,19.7810063 L10.0228981,19.1257057 C10.4379303,18.7649238 11.0644648,18.8061562 11.4359449,19.2334952 L11.6943867,19.5307984 C12.0597587,19.9511109 12.0229524,20.5813129 11.604469,20.9450949 L10.850632,21.6003955 Z M8.73060467,18.5608604 C8.18603347,18.6373949 7.68303422,18.2615793 7.60423028,17.7008601 L7.54940573,17.3107631 C7.47189752,16.7592636 7.84599849,16.2507779 8.39509809,16.173607 L9.38422129,16.0345948 C9.92879248,15.9580603 10.4317917,16.3338759 10.5105957,16.894595 L10.5654202,17.284692 C10.6429284,17.8361915 10.2688275,18.3446773 9.71972787,18.4218482 L8.73060467,18.5608604 Z M8.567922,14.8435379 C8.06952249,14.6111304 7.85235566,14.0219919 8.09165466,13.5088135 L8.25813695,13.1517911 C8.49350127,12.6470507 9.08418991,12.4243487 9.58673388,12.6586888 L10.4919939,13.0808184 C10.9903934,13.3132259 11.2075602,13.9023645 10.9682612,14.4155428 L10.8017789,14.7725652 C10.5664146,15.2773056 9.97572595,15.5000077 9.47318198,15.2656676 L8.567922,14.8435379 Z M10.421468,11.6530498 C10.1219584,11.1918456 10.2499864,10.5771469 10.7248665,10.2687561 L11.0552446,10.0542061 C11.5223165,9.75088606 12.141263,9.87504133 12.4432631,10.3400807 L12.9872725,11.1777817 C13.286782,11.6389859 13.1587541,12.2536846 12.6838739,12.5620754 L12.3534959,12.7766254 C11.8864239,13.0799455 11.2674775,12.9557902 10.9654774,12.4907508 L10.421468,11.6530498 Z" id="Combined-Shape" fill="#3E6BA2"></path>
            </g>
        </g>
    </g>
</svg>