<?xml version="1.0" encoding="UTF-8" standalone="no"?>
<svg width="512px" height="512px" viewBox="0 0 512 512" version="1.1" xmlns="http://www.w3.org/2000/svg" xmlns:xlink="http://www.w3.org/1999/xlink">
    <!-- Generator: Sketch 39.1 (31720) - http://www.bohemiancoding.com/sketch -->
    <title>icon</title>
    <desc>Created with Sketch.</desc>
    <defs>
        <circle id="path-1" cx="256.5" cy="256.5" r="234"></circle>
        <filter x="-50%" y="-50%" width="200%" height="200%" filterUnits="objectBoundingBox" id="filter-2">
            <feOffset dx="0" dy="4" in="SourceAlpha" result="shadowOffsetOuter1"></feOffset>
            <feGaussianBlur stdDeviation="2" in="shadowOffsetOuter1" result="shadowBlurOuter1"></feGaussianBlur>
            <feColorMatrix values="0 0 0 0 0   0 0 0 0 0   0 0 0 0 0  0 0 0 0.2 0" type="matrix" in="shadowBlurOuter1" result="shadowMatrixOuter1"></feColorMatrix>
            <feOffset dx="0" dy="1" in="SourceAlpha" result="shadowOffsetOuter2"></feOffset>
            <feColorMatrix values="0 0 0 0 0   0 0 0 0 0   0 0 0 0 0  0 0 0 0.2 0" type="matrix" in="shadowOffsetOuter2" result="shadowMatrixOuter2"></feColorMatrix>
            <feOffset dx="0" dy="-1" in="SourceAlpha" result="shadowOffsetOuter3"></feOffset>
            <feGaussianBlur stdDeviation="2" in="shadowOffsetOuter3" result="shadowBlurOuter3"></feGaussianBlur>
            <feColorMatrix values="0 0 0 0 0.780392157   0 0 0 0 0.482352941   0 0 0 0 0  0 0 0 0.2 0" type="matrix" in="shadowBlurOuter3" result="shadowMatrixOuter3"></feColorMatrix>
            <feMerge>
                <feMergeNode in="shadowMatrixOuter1"></feMergeNode>
                <feMergeNode in="shadowMatrixOuter2"></feMergeNode>
                <feMergeNode in="shadowMatrixOuter3"></feMergeNode>
            </feMerge>
        </filter>
        <filter x="-50%" y="-50%" width="200%" height="200%" filterUnits="objectBoundingBox" id="filter-3">
            <feOffset dx="0" dy="4" in="SourceAlpha" result="shadowOffsetOuter1"></feOffset>
            <feGaussianBlur stdDeviation="2" in="shadowOffsetOuter1" result="shadowBlurOuter1"></feGaussianBlur>
            <feColorMatrix values="0 0 0 0 0   0 0 0 0 0   0 0 0 0 0  0 0 0 0.2 0" type="matrix" in="shadowBlurOuter1" result="shadowMatrixOuter1"></feColorMatrix>
            <feMerge>
                <feMergeNode in="shadowMatrixOuter1"></feMergeNode>
                <feMergeNode in="SourceGraphic"></feMergeNode>
            </feMerge>
        </filter>
        <filter x="-50%" y="-50%" width="200%" height="200%" filterUnits="objectBoundingBox" id="filter-4">
            <feOffset dx="0" dy="1" in="SourceAlpha" result="shadowOffsetOuter1"></feOffset>
            <feColorMatrix values="0 0 0 0 0   0 0 0 0 0   0 0 0 0 0  0 0 0 0.2 0" type="matrix" in="shadowOffsetOuter1" result="shadowMatrixOuter1"></feColorMatrix>
            <feMerge>
                <feMergeNode in="shadowMatrixOuter1"></feMergeNode>
                <feMergeNode in="SourceGraphic"></feMergeNode>
            </feMerge>
        </filter>
    </defs>
    <g id="icon" stroke="none" stroke-width="1" fill="none" fill-rule="evenodd">
        <g>
            <g id="Oval-4">
                <use fill="black" fill-opacity="1" filter="url(#filter-2)" xlink:href="#path-1"></use>
                <use fill="#955D00" fill-rule="evenodd" xlink:href="#path-1"></use>
            </g>
            <path d="M274.871662,101.507141 L274.871663,28 L238,28 L238,101.507141 L274.871662,101.507141 Z M256.435831,41.3046058 L274.871663,28 L238,28 L256.435831,41.3046058 Z" id="Combined-Shape" fill="#B9921C"></path>
            <path d="M373.310596,110.287695 L410.182259,110.287695 L410.182259,257.000508 L373.310596,257.000508 L373.310596,110.287695 Z M373.310596,110.287695 L410.182259,110.287695 L410.182258,145.007883 L373.310596,166.351462 L373.310596,110.287695 Z M391.746427,237.480947 L410.182259,257.000508 L373.310596,257.000508 L391.746427,237.480947 Z" id="Combined-Shape-Copy" fill="#B9921C" transform="translate(391.746427, 183.644102) scale(1, -1) rotate(-60.000000) translate(-391.746427, -183.644102) "></path>
            <path d="M335.313295,111.317839 L347.949797,118.613527 L366.631266,86.2562731 L353.994764,78.9605852 L335.31354,111.317415 L347.949797,118.613527 L358.355154,100.59092 L341.650569,100.341358 L335.31354,111.317415 Z M464.869354,250.193865 L464.869354,264.785241 L427.506416,264.785241 L427.506416,250.193865 L464.869354,250.193865 Z M440.815577,352.314426 L433.519889,364.950928 L401.162635,346.269459 L408.458323,333.632957 L440.815577,352.314426 Z M367.37459,429.137976 L354.738088,436.433664 L336.056619,404.07641 L348.693121,396.780722 L367.37459,429.137976 Z M264.224846,460.079707 L249.63347,460.079707 L249.63347,422.716769 L264.224846,422.716769 L264.224846,460.079707 Z M159.005236,436.848808 L146.368734,429.55312 L165.050203,397.195866 L177.686705,404.491554 L159.005236,436.848808 Z M79.9092689,365.669978 L72.613581,353.033476 L104.970835,334.352007 L112.266523,346.988509 L79.9092689,365.669978 Z M48.1306458,265.615528 L48.1306458,251.024152 L85.4935842,251.024152 L85.4935842,265.615528 L48.1306458,265.615528 Z M72.1844229,163.494967 L79.4801108,150.858465 L111.837365,169.539934 L104.541677,182.176436 L72.1844229,163.494967 Z M145.62541,86.6714169 L158.261912,79.375729 L176.943381,111.732983 L164.306879,119.028671 L145.62541,86.6714169 Z M158.171161,108.401295 L170.807663,101.105607 L176.943381,111.732983 L164.306879,119.028671 L158.171161,108.401295 Z" id="Rectangle-3" fill="#B9921C"></path>
            <g filter="url(#filter-3)" transform="translate(140.000000, 96.000000)" fill="#FAFAFA">
                <path d="M50.1392405,0.423522334 L227.99024,0.423522334 C230.757054,0.423522334 233,2.66679131 233,5.42761024 L233,289.959967 C233,292.723648 230.753936,294.964055 227.99024,294.964055 L50.1392405,294.964055 L50.1392405,0.423522334 Z M50.1392405,9.25973831 L217.676477,9.25973831 C220.438308,9.25973831 222.677215,11.4971921 222.677215,14.2639815 L222.677215,289.959812 C222.677215,292.723579 220.432594,294.964055 217.676477,294.964055 L50.1392405,294.964055 L50.1392405,9.25973831 Z" id="Combined-Shape"></path>
                <path d="M13.1290666,25.6221933 C12.8684681,9.43790483 50.1662709,9.30342319 50.1662709,9.25973831 C50.1662709,2.54219576 50.1662737,6.62752117 50.1662737,0.39334287 C21.2319912,1.38713576 0.00513042981,9.43790483 0.00513042981,25.6221933 C3.43622702,25.6221943 7.1250834,25.6221933 13.1290666,25.6221933 Z" id="Oval-6"></path>
                <path d="M182.075493,312.615384 C181.789276,295.245559 222.753735,295.021839 222.753735,294.974954 C222.753735,287.765336 222.753736,292.229308 222.753736,285.538462 C190.974996,286.605052 167.661376,295.245559 167.661376,312.615384 C171.429775,312.615385 175.481273,312.615384 182.075493,312.615384 Z" id="Oval-6-Copy"></path>
                <path d="M0,25.4594676 L172.866929,25.4594676 C178.386369,25.4594676 182.860759,29.938891 182.860759,35.4599235 L182.860759,309.999544 C182.860759,315.522643 178.38599,320 172.866929,320 L9.99383088,320 C4.47439049,320 0,315.520577 0,309.999544 L0,25.4594676 Z M16.221519,50.4954128 L168.113924,50.4954128 L168.113924,294.964055 L16.221519,294.964055 L16.221519,50.4954128 Z M42.7658228,35.7683862 L141.56962,35.7683862 L141.56962,43.1318995 L42.7658228,43.1318995 L42.7658228,35.7683862 Z M76.6835443,300.854865 L107.651899,300.854865 L107.651899,312.636487 L76.6835443,312.636487 L76.6835443,300.854865 Z" id="Combined-Shape"></path>
            </g>
            <g filter="url(#filter-4)" transform="translate(140.000000, 96.000000)" fill="#FAFAFA">
                <path d="M50.1392405,0.423522334 L227.99024,0.423522334 C230.757054,0.423522334 233,2.66679131 233,5.42761024 L233,289.959967 C233,292.723648 230.753936,294.964055 227.99024,294.964055 L50.1392405,294.964055 L50.1392405,0.423522334 Z M50.1392405,9.25973831 L217.676477,9.25973831 C220.438308,9.25973831 222.677215,11.4971921 222.677215,14.2639815 L222.677215,289.959812 C222.677215,292.723579 220.432594,294.964055 217.676477,294.964055 L50.1392405,294.964055 L50.1392405,9.25973831 Z" id="Combined-Shape"></path>
                <path d="M13.1290666,25.6221933 C12.8684681,9.43790483 50.1662709,9.30342319 50.1662709,9.25973831 C50.1662709,2.54219576 50.1662737,6.62752117 50.1662737,0.39334287 C21.2319912,1.38713576 0.00513042981,9.43790483 0.00513042981,25.6221933 C3.43622702,25.6221943 7.1250834,25.6221933 13.1290666,25.6221933 Z" id="Oval-6"></path>
                <path d="M182.075493,312.615384 C181.789276,295.245559 222.753735,295.021839 222.753735,294.974954 C222.753735,287.765336 222.753736,292.229308 222.753736,285.538462 C190.974996,286.605052 167.661376,295.245559 167.661376,312.615384 C171.429775,312.615385 175.481273,312.615384 182.075493,312.615384 Z" id="Oval-6-Copy"></path>
                <path d="M182.075493,312.615384 C181.789276,295.245559 222.753735,295.021839 222.753735,294.974954 C222.753735,287.765336 222.753736,292.229308 222.753736,285.538462 C190.974996,286.605052 167.661376,295.245559 167.661376,312.615384 C171.429775,312.615385 175.481273,312.615384 182.075493,312.615384 Z" id="Oval-6-Copy"></path>
                <path d="M0,25.4594676 L172.866929,25.4594676 C178.386369,25.4594676 182.860759,29.938891 182.860759,35.4599235 L182.860759,309.999544 C182.860759,315.522643 178.38599,320 172.866929,320 L9.99383088,320 C4.47439049,320 0,315.520577 0,309.999544 L0,25.4594676 Z M16.221519,50.4954128 L168.113924,50.4954128 L168.113924,294.964055 L16.221519,294.964055 L16.221519,50.4954128 Z M42.7658228,35.7683862 L141.56962,35.7683862 L141.56962,43.1318995 L42.7658228,43.1318995 L42.7658228,35.7683862 Z M76.6835443,300.854865 L107.651899,300.854865 L107.651899,312.636487 L76.6835443,312.636487 L76.6835443,300.854865 Z" id="Combined-Shape"></path>
            </g>
        </g>
    </g>
</svg>