<?xml version="1.0" encoding="UTF-8"?>
<svg width="1024px" height="1024px" viewBox="0 0 1024 1024" version="1.1" xmlns="http://www.w3.org/2000/svg" xmlns:xlink="http://www.w3.org/1999/xlink">
    <!-- Generator: Sketch 43 (38999) - http://www.bohemiancoding.com/sketch -->
    <title>Icon</title>
    <desc>Created with Sketch.</desc>
    <defs>
        <linearGradient x1="31.1572366%" y1="43.2511336%" x2="67.8110727%" y2="100%" id="linearGradient-1">
            <stop stop-color="#F85B73" offset="0%"></stop>
            <stop stop-color="#EA0023" offset="100%"></stop>
        </linearGradient>
    </defs>
    <g id="Android" stroke="none" stroke-width="1" fill="none" fill-rule="evenodd">
        <g id="Icon">
            <path d="M746.209376,106 L851.001752,106 C888.003863,106 918,136.001593 918,172.998248 L918,276.34178 C958.681384,345.810934 982,426.68229 982,513 C982,772.021548 772.021548,982 513,982 C253.978452,982 44,772.021548 44,513 C44,253.978452 253.978452,44 513,44 C597.893124,44 677.518183,66.5552671 746.209376,106 Z" id="Combined-Shape" fill="url(#linearGradient-1)"></path>
            <g id="Group" transform="translate(152.000000, -20.000000)" fill="#FFFFFF">
                <g id="marume" transform="translate(401.000000, 139.000000)">
                    <path d="M16.8296987,52.9195075 C16.1843256,56.0116762 15.8450704,59.2162194 15.8450704,62.5 C15.8450704,88.2668061 36.7331939,109.15493 62.5,109.15493 C88.2668061,109.15493 109.15493,88.2668061 109.15493,62.5 C109.15493,36.7331939 88.2668061,15.8450704 62.5,15.8450704 C59.2162194,15.8450704 56.0116762,16.1843256 52.9195075,16.8296987 C65.5304688,20.1767018 74.8239437,31.6703008 74.8239437,45.334507 C74.8239437,61.6210732 61.6210732,74.8239437 45.334507,74.8239437 C31.6703008,74.8239437 20.1767018,65.5304688 16.8296987,52.9195075 Z M62.5,125 C27.9822031,125 0,97.0177969 0,62.5 C0,27.9822031 27.9822031,0 62.5,0 C97.0177969,0 125,27.9822031 125,62.5 C125,97.0177969 97.0177969,125 62.5,125 Z" id="Combined-Shape"></path>
                    <path d="M157.829699,115.919507 C157.184326,119.011676 156.84507,122.216219 156.84507,125.5 C156.84507,151.266806 177.733194,172.15493 203.5,172.15493 C229.266806,172.15493 250.15493,151.266806 250.15493,125.5 C250.15493,99.7331939 229.266806,78.8450704 203.5,78.8450704 C200.216219,78.8450704 197.011676,79.1843256 193.919507,79.8296987 C206.530469,83.1767018 215.823944,94.6703008 215.823944,108.334507 C215.823944,124.621073 202.621073,137.823944 186.334507,137.823944 C172.670301,137.823944 161.176702,128.530469 157.829699,115.919507 Z M203.5,188 C168.982203,188 141,160.017797 141,125.5 C141,90.9822031 168.982203,63 203.5,63 C238.017797,63 266,90.9822031 266,125.5 C266,160.017797 238.017797,188 203.5,188 Z" id="Combined-Shape-Copy-4"></path>
                </g>
                <path d="M605.361307,794.6 C596.627136,778.379397 589.140704,760.911055 573.54397,720.983417 L435.044975,361.010804 C420.69598,322.954774 416.952764,312.972864 413.833417,298 L305.280151,298 C302.160804,314.220603 297.169849,329.817337 285.316332,361.010804 L148.065075,720.983417 C136.835427,749.681407 124.35804,777.755528 115,794.6 L217.314573,794.6 C222.305528,768.397487 224.801005,759.039447 236.030653,729.093719 L260.985427,661.09196 L460.623618,661.09196 L485.578392,729.093719 C492.440955,747.18593 499.303518,774.012312 503.046734,794.6 L605.361307,794.6 Z M438.164322,589.346985 L283.444724,589.346985 L348.327136,404.681658 C350.198744,399.066834 350.198744,399.066834 360.180653,369.744975 C367.043216,390.332663 368.914824,397.819095 371.410302,404.681658 L438.164322,589.346985 Z" id="A"></path>
            </g>
            <rect id="Rectangle-3" fill-opacity="0" fill="#D8D8D8" x="0" y="0" width="1024" height="1024"></rect>
        </g>
    </g>
</svg>