<?xml version="1.0" encoding="UTF-8"?>
<svg width="512px" height="512px" viewBox="0 0 512 512" version="1.1" xmlns="http://www.w3.org/2000/svg" xmlns:xlink="http://www.w3.org/1999/xlink">
    <!-- Generator: Sketch 43.2 (39069) - http://www.bohemiancoding.com/sketch -->
    <title>icon</title>
    <desc>Created with Sketch.</desc>
    <defs>
        <radialGradient cx="85.4828634%" cy="50%" fx="85.4828634%" fy="50%" r="74.3914923%" gradientTransform="translate(0.854829,0.500000),scale(1.000000,0.999869),rotate(180.000000),scale(1.000000,2.143157),translate(-0.854829,-0.500000)" id="radialGradient-1">
            <stop stop-color="#00088F" offset="0%"></stop>
            <stop stop-color="#00598D" offset="100%"></stop>
        </radialGradient>
        <radialGradient cx="0%" cy="50%" fx="0%" fy="50%" r="109.096505%" gradientTransform="translate(0.000000,0.500000),scale(1.000000,0.169881),scale(1.000000,4.145957),translate(-0.000000,-0.500000)" id="radialGradient-2">
            <stop stop-color="#0000BE" offset="0%"></stop>
            <stop stop-color="#001B90" offset="12.9326571%"></stop>
            <stop stop-color="#1C005E" offset="100%"></stop>
        </radialGradient>
    </defs>
    <g id="Icon" stroke="none" stroke-width="1" fill="none" fill-rule="evenodd">
        <g id="icon">
            <path d="M50.4787142,440.548947 C50.4787142,451.59418 59.4335009,460.548111 70.4778077,460.548111 C70.4778077,460.548111 63.6390329,460.548111 86.6294636,460.548111 C95.4590307,460.548111 120.316044,460.548111 120.316044,460.548111 L120.316044,421.327198 L391.683956,421.327198 L391.683956,460.548111 L441.520399,460.548111 C452.566584,460.548111 461.521286,451.584994 461.521286,440.552561 C461.521286,440.552561 461.521286,452.875069 461.521286,421.327198 C461.521286,255 256,49.4518891 120.316044,49.4518891 L70.4796009,49.4518891 C59.4334162,49.4518891 50.4787142,58.4085957 50.4787142,69.4551438 L50.4787142,119.748982 L50.4787142,440.548947 Z" id="Oval" fill="url(#radialGradient-1)"></path>
            <path d="M50.4787142,69.4536426 C50.4787142,58.4069792 59.4301468,49.4518891 70.4796009,49.4518891 L120.316044,49.4518891 L120.316044,460.548111 L70.4796009,460.548111 C59.4334162,460.548111 50.4787142,451.603587 50.4787142,440.546357 L50.4787142,69.4536426 Z" id="Rectangle" fill="url(#radialGradient-2)"></path>
            <g id="footstamp" style="mix-blend-mode: luminosity;" transform="translate(156.232386, 185.153555)" fill="#ECECEC">
                <path d="M89.3423077,161.74061 C124.316802,161.74061 152.669231,173.914948 152.669231,139.016461 C152.669231,104.117974 124.316802,75.8271605 89.3423077,75.8271605 C54.3678138,75.8271605 26.0153846,104.117974 26.0153846,139.016461 C26.0153846,173.914948 54.3678138,161.74061 89.3423077,161.74061 Z" id="Oval"></path>
                <path d="M22.25,94.8851994 C33.0259251,94.8851994 41.7615385,88.2366789 41.7615385,69.7246873 C41.7615385,51.2126956 33.0259251,36.2057613 22.25,36.2057613 C11.4740749,36.2057613 2.73846154,51.2126956 2.73846154,69.7246873 C2.73846154,88.2366789 11.4740749,94.8851994 22.25,94.8851994 Z" id="Oval-2"></path>
                <path d="M65.3807692,58.6794381 C76.1566944,58.6794381 84.8923077,52.0309176 84.8923077,33.518926 C84.8923077,15.0069343 76.1566944,0 65.3807692,0 C54.6048441,0 45.8692308,15.0069343 45.8692308,33.518926 C45.8692308,52.0309176 54.6048441,58.6794381 65.3807692,58.6794381 Z" id="Oval-2-Copy"></path>
                <path d="M155.75,94.8851994 C166.525925,94.8851994 175.261538,88.2366789 175.261538,69.7246873 C175.261538,51.2126956 166.525925,36.2057613 155.75,36.2057613 C144.974075,36.2057613 136.238462,51.2126956 136.238462,69.7246873 C136.238462,88.2366789 144.974075,94.8851994 155.75,94.8851994 Z" id="Oval-2-Copy-2"></path>
                <path d="M112.619231,58.6794381 C123.395156,58.6794381 132.130769,52.0309176 132.130769,33.518926 C132.130769,15.0069343 123.395156,0 112.619231,0 C101.843306,0 93.1076923,15.0069343 93.1076923,33.518926 C93.1076923,52.0309176 101.843306,58.6794381 112.619231,58.6794381 Z" id="Oval-2-Copy-3"></path>
            </g>
        </g>
    </g>
</svg>