<?xml version="1.0" encoding="UTF-8" standalone="no"?>
<svg width="1024px" height="1024px" viewBox="0 0 1024 1024" version="1.1" xmlns="http://www.w3.org/2000/svg" xmlns:xlink="http://www.w3.org/1999/xlink">
    <!-- Generator: Sketch 39.1 (31720) - http://www.bohemiancoding.com/sketch -->
    <title>Icon</title>
    <desc>Created with Sketch.</desc>
    <defs>
        <linearGradient x1="50%" y1="1.339237%" x2="50%" y2="99.0712068%" id="linearGradient-1">
            <stop stop-color="#3E6BA2" offset="0%"></stop>
            <stop stop-color="#4D6196" offset="100%"></stop>
        </linearGradient>
    </defs>
    <g id="Icon" stroke="none" stroke-width="1" fill="none" fill-rule="evenodd">
        <g>
            <path d="M0,179.99744 C0,80.5875988 80.5919031,0 179.99744,0 L844.00256,0 C943.412401,0 1024,80.5919031 1024,179.99744 L1024,844.00256 C1024,943.412401 943.408097,1024 844.00256,1024 L179.99744,1024 C80.5875988,1024 0,943.408097 0,844.00256 L0,179.99744 Z" id="background" fill="url(#linearGradient-1)"></path>
            <g id="Charactor" transform="translate(196.000000, 182.000000)">
                <path d="M-1.70530257e-13,2.84217094e-14 L127.897994,2.84217094e-14 L315.930471,378.669843 L505.309268,2.84217094e-14 L632,2.84217094e-14 C631.860968,2.84217094e-14 632,501.781022 632,501.781022 L546.369995,501.781022 C546.369995,501.781022 546.366412,140.361673 546.366412,103.733577 L360.806973,479.562758 L272.40029,479.562758 L84.4274809,103.733577 L84.4274809,501.781036 L-1.70530257e-13,501.781036 L-1.70530257e-13,2.84217094e-14 Z" id="M" fill="#F8FCFF"></path>
                <rect id="Rectangle-2" fill="#F8FCFF" x="546.366412" y="607.927007" width="85.6335878" height="53.0729927"></rect>
                <rect id="Rectangle-2-Copy-4" fill="#F8FCFF" x="546.366412" y="607.927007" width="85.6335878" height="53.0729927"></rect>
                <polygon id="Rectangle-2-Copy-5" fill="#A0D9E2" points="546.366412 528.317518 632 528.317518 632 581.390511 546.366412 581.390015"></polygon>
            </g>
        </g>
    </g>
</svg>