<?xml version="1.0" encoding="UTF-8" standalone="no"?>
<svg width="1280px" height="850px" viewBox="0 0 1280 850" version="1.1" xmlns="http://www.w3.org/2000/svg" xmlns:xlink="http://www.w3.org/1999/xlink">
    <!-- Generator: Sketch 3.6.1 (26313) - http://www.bohemiancoding.com/sketch -->
    <title>Desktop Landscape</title>
    <desc>Created with Sketch.</desc>
    <defs></defs>
    <g id="v1.2" stroke="none" stroke-width="1" fill="none" fill-rule="evenodd">
        <g id="Desktop-Landscape">
            <g id="CPS-Lab." transform="translate(102.000000, 275.000000)">
                <path d="M231.024178,139.789564 L231.024178,226.314399 L200.30424,226.314399 L200.30424,19.0861457 L235.11138,19.0861457 C252.163448,19.0861457 265.040203,20.2707912 273.742032,22.6401177 C282.531757,25.0094442 290.2666,29.4847715 296.946792,36.066234 C308.637127,47.4741023 314.482207,61.865351 314.482207,79.2404119 C314.482207,97.8440125 308.241595,112.586267 295.760185,123.467619 C283.278774,134.34897 266.446702,139.789564 245.263463,139.789564 L231.024178,139.789564 L231.024178,139.789564 L231.024178,139.789564 Z M231.024178,111.357788 L242.494713,111.357788 C270.709733,111.357788 284.817031,100.520476 284.817031,78.8455261 C284.817031,57.8725991 270.270253,47.3862928 241.176261,47.3862928 L231.024178,47.3862928 L231.024178,111.357788 L231.024178,111.357788 L231.024178,111.357788 Z M462.273276,44.0955769 C462.273276,44.0955769 412.926678,44.095578 405.982794,44.095578 C397.45676,44.095578 390.381137,46.5087447 384.755713,51.3351506 C379.130288,56.0738035 376.317618,62.0409067 376.317618,69.236639 C376.317618,79.1527091 383.700877,87.1380971 398.467616,93.1930425 L418.771781,101.485644 C435.296466,108.154859 447.382157,116.293812 455.029219,125.902747 C462.67628,135.511683 466.499753,147.292324 466.499753,161.245024 C466.499753,179.936378 460.259142,195.380645 447.777731,207.578288 C435.208423,219.863685 419.606894,226.006291 400.972676,226.314399 C383.305327,226.006291 335.919952,226.314399 335.919952,226.314399 L335.919952,197.311258 L402.159283,197.311258 C411.740084,197.311258 419.694666,194.108328 426.023269,187.702371 C432.351871,181.296414 435.516125,173.179399 435.516125,163.351082 C435.516125,159.402204 434.966775,155.782454 433.86806,152.491723 C432.769344,149.200992 431.055373,146.173564 428.726096,143.40935 C426.396819,140.645136 423.386383,138.056466 419.694698,135.643263 C416.003013,133.23006 411.608216,130.926583 406.510175,128.732762 L386.865236,120.57179 C359.001806,108.81291 345.070299,91.6136127 345.070299,68.9733818 C345.070299,53.7043889 350.915379,40.9365432 362.605715,30.6694617 C374.29605,20.3146275 388.842828,15.137288 406.246485,15.137288 C429.715052,15.137288 462.273276,15.137288 462.273276,15.137288 L462.273276,44.0955769 L462.273276,44.0955769 L462.273276,44.0955769 Z M617.594383,23.0798547 L617.594383,197.487738 L677.452116,197.487738 L677.452116,226.314399 L586.874446,226.314399 L586.874446,23.0798547 L617.594383,23.0798547 L617.594383,23.0798547 L617.594383,23.0798547 Z M795.58544,94.1144427 L825.382461,94.1144427 L825.382461,222.32069 L795.58544,222.32069 L795.58544,208.894574 C783.367721,220.302442 770.227278,226.006291 756.163717,226.006291 C738.408471,226.006291 723.729849,219.60043 712.127411,206.788517 C700.61287,193.713345 694.855686,177.391563 694.855686,157.822681 C694.855686,138.60481 700.61287,122.590159 712.127411,109.778245 C723.641952,96.9663314 738.056886,90.5604707 755.372645,90.5604707 C770.315179,90.5604707 783.71931,96.7030769 795.58544,108.988473 L795.58544,94.1144427 L795.58544,94.1144427 L795.58544,94.1144427 Z M725.180089,157.822681 C725.180089,170.108077 728.476186,180.11175 735.068481,187.834 C741.836569,195.644002 750.362475,199.548944 760.646455,199.548944 C771.633612,199.548944 780.511102,195.775629 787.27919,188.228885 C794.047279,180.418883 797.431273,170.502962 797.431273,158.480824 C797.431273,146.458686 794.047279,136.542764 787.27919,128.732762 C780.511102,121.098266 771.721508,117.281075 760.910145,117.281075 C750.714063,117.281075 742.188157,121.142141 735.332171,128.864391 C728.564082,136.674393 725.180089,146.32706 725.180089,157.822681 L725.180089,157.822681 L725.180089,157.822681 L725.180089,157.822681 Z M892.491681,108.988473 C904.357811,96.7030769 917.80589,90.5604707 932.836321,90.5604707 C950.152081,90.5604707 964.567015,97.0102072 976.081555,109.909874 C987.596096,122.721787 993.35328,138.692563 993.35328,157.822681 C993.35328,177.567068 987.552148,193.88885 975.94971,206.788517 C964.435169,219.60043 949.888391,226.006291 932.30894,226.006291 C917.454303,226.006291 904.182017,220.302442 892.491681,208.894574 L892.491681,222.32069 L862.826505,222.32069 L862.826505,0 L892.491681,0 L892.491681,108.988473 Z M963.028878,159.138967 C963.028878,146.85357 959.688832,136.849897 953.008641,129.127648 C946.240552,121.229893 937.758594,117.281075 927.562512,117.281075 C916.663252,117.281075 907.785762,121.098266 900.929776,128.732762 C894.161687,136.279506 890.777693,146.107676 890.777693,158.217567 C890.777693,170.678469 894.117739,180.638266 900.797931,188.097257 C907.478122,195.731753 916.267716,199.548944 927.166976,199.548944 C937.450955,199.548944 945.976861,195.731753 952.74495,188.097257 C959.600936,180.375007 963.028878,170.722341 963.028878,159.138967 L963.028878,159.138967 L963.028878,159.138967 L963.028878,159.138967 Z M1029.44441,213.669767 C1029.85724,218.013382 1031.5827,221.701717 1034.62084,224.734856 C1038.13673,228.24497 1042.48758,230 1047.67351,230 C1052.77155,230 1057.07846,228.24497 1060.59435,224.734856 C1064.19813,221.13699 1066,216.79329 1066,211.703626 C1066,206.701714 1064.19813,202.40189 1060.59435,198.804024 C1056.99056,195.206158 1052.68366,193.407252 1047.67351,193.407252 C1042.66337,193.407252 1038.35647,195.206158 1034.75268,198.804024 C1031.53765,202.013773 1029.75675,205.747282 1029.40993,210.004642 L172,210.004642 L172,213.669767 L1029.44441,213.669767 Z M421.578382,210.004641 L403.82969,210.004641 C408.556019,210.004641 413.793369,209.767606 423.347781,204.682932 C432.029159,200.062871 441.692559,189.876428 443.367485,187.095877 C445.013777,187.854371 443.367485,187.095877 447.177965,188.950405 C439.205229,201.483052 423.347781,210.004641 421.578382,210.004641 Z" fill="#00060A"></path>
                <g id="C" transform="translate(0.000000, 15.000000)">
                    <path d="M107,117.259766 C113.218597,117.259766 118.259766,112.218597 118.259766,106 C118.259766,99.7814032 113.218597,94.7402344 107,94.7402344 C100.781403,94.7402344 95.7402344,99.7814032 95.7402344,106 C95.7402344,112.218597 100.781403,117.259766 107,117.259766 Z" id="Oval-1-Copy" stroke="#000000" fill="#000000"></path>
                    <path d="M107,166.000076 C140.137127,166.000076 167.000076,139.137127 167.000076,106 C167.000076,72.8628729 140.137127,45.9999237 107,45.9999237 C73.8628729,45.9999237 46.9999237,72.8628729 46.9999237,106 C46.9999237,139.137127 73.8628729,166.000076 107,166.000076 L107,166.000076 Z M107,165.000038 C139.584821,165.000038 166.000038,138.584821 166.000038,106 C166.000038,73.4151787 139.584821,46.9999619 107,46.9999619 C74.4151787,46.9999619 47.9999619,73.4151787 47.9999619,106 C47.9999619,138.584821 74.4151787,165.000038 107,165.000038 L107,165.000038 Z" id="Combined-Shape" fill="#000000"></path>
                    <path d="M107,156.000305 C134.614406,156.000305 157.000305,133.614406 157.000305,106 C157.000305,78.385594 134.614406,55.9996948 107,55.9996948 C79.385594,55.9996948 56.9996948,78.385594 56.9996948,106 C56.9996948,133.614406 79.385594,156.000305 107,156.000305 L107,156.000305 Z M107,155.000153 C134.062037,155.000153 156.000153,133.062037 156.000153,106 C156.000153,78.937963 134.062037,56.9998474 107,56.9998474 C79.937963,56.9998474 57.9998474,78.937963 57.9998474,106 C57.9998474,133.062037 79.937963,155.000153 107,155.000153 L107,155.000153 Z" id="Combined-Shape" fill="#000000"></path>
                    <path d="M161,196.632661 C144.965484,206.38399 126.138587,212 106,212 C47.4578165,212 0,164.542183 0,106 C0,47.4578165 47.4578165,0 106,0 C126.138587,0 144.965484,5.6160104 161,15.3673393 L161,53.9518312 C147.358402,39.8019131 128.2071,31 107,31 C65.5786438,31 32,64.5786438 32,106 C32,147.421356 65.5786438,181 107,181 C128.2071,181 147.358402,172.198087 161,158.048169 L161,196.632661 L161,196.632661 Z M0,195.660004 L172,195.660004 L172,199.330902 L0,199.330902 L0,195.660004 Z" id="Oval-1-Copy" fill="#000000"></path>
                    <path d="M23.349534,107 L106.5,107" id="Line" stroke="#000000" stroke-width="4" stroke-linecap="square"></path>
                </g>
            </g>
            <text id="実空間コンピューティング研究室" font-family="HiraginoSans-W3, Hiragino Sans" font-size="72" font-weight="300" fill="#00060A">
                <tspan x="97.58" y="582.918393">実空間コンピューティング研究室</tspan>
            </text>
        </g>
    </g>
</svg>