<?xml version="1.0" encoding="UTF-8" standalone="no"?>
<svg width="1024px" height="500px" viewBox="0 0 1024 500" version="1.1" xmlns="http://www.w3.org/2000/svg" xmlns:xlink="http://www.w3.org/1999/xlink" style="background: #955D00;">
    <!-- Generator: Sketch 39.1 (31720) - http://www.bohemiancoding.com/sketch -->
    <title>header</title>
    <desc>Created with Sketch.</desc>
    <defs></defs>
    <g id="header" stroke="none" stroke-width="1" fill="none" fill-rule="evenodd">
        <g>
            <g id="Memories" transform="translate(285.000000, 24.000000)" fill="#B9921C">
                <path d="M459.629556,-5.68434189e-14 L541.086921,-5.68434189e-14 L541.086921,221.098901 L459.629556,221.098901 L459.629556,-5.68434189e-14 Z M500.358237,191.682564 L541.086921,221.098901 L459.629556,221.098901 L500.358237,191.682564 Z" id="Combined-Shape" transform="translate(500.358238, 110.549451) scale(1, -1) translate(-500.358238, -110.549451) "></path>
                <path d="M734.695022,62.2671761 L764.949274,79.7344768 L718.675136,159.883636 L688.420883,142.416335 L734.695022,62.2671761 Z M1000.92396,486.715374 L1000.92396,521.649976 L908.375681,521.649976 L908.375681,486.715374 L1000.92396,486.715374 Z M943.127255,739.587822 L925.659954,769.842074 L845.510795,723.567936 L862.978096,693.313684 L943.127255,739.587822 Z M766.728936,929.659187 L736.474684,947.126488 L690.200545,866.977329 L720.454798,849.510028 L766.728936,929.659187 Z M518.994789,1006 L484.060188,1006 L484.060188,913.451723 L518.994789,913.451723 L518.994789,1006 Z M266.304978,948.154802 L236.050726,930.687501 L282.324864,850.538342 L312.579117,868.005643 L266.304978,948.154802 Z M76.3675339,771.623167 L58.9002331,741.368915 L139.049392,695.094776 L156.516693,725.349028 L76.3675339,771.623167 Z M0.0760415633,523.706604 L0.0760415633,488.772002 L92.6243187,488.772002 L92.6243187,523.706604 L0.0760415633,523.706604 Z M57.8727448,270.834156 L75.3400456,240.579904 L155.489205,286.854042 L138.021904,317.108295 L57.8727448,270.834156 Z M234.271064,80.762791 L264.525316,63.2954903 L310.799455,143.444649 L280.545202,160.91195 L234.271064,80.762791 Z" id="Rectangle-3"></path>
            </g>
            <g id="icon" transform="translate(225.000000, 185.000000)" fill="#FAFAFA">
                <path d="M20.3803336,0.172434093 L89.7163062,0.172434093 C92.473479,0.172434093 94.7086093,2.40829 94.7086093,5.17257469 L94.7086093,115.092367 C94.7086093,117.853869 92.4638615,120.092508 89.7163062,120.092508 L20.3803336,120.092508 L20.3803336,0.172434093 Z M20.3803336,3.77003631 L85.5111067,3.77003631 C88.2733873,3.77003631 90.5126582,6.01559394 90.5126582,8.76826752 L90.5126582,115.094277 C90.5126582,117.854724 88.2783228,120.092508 85.5111067,120.092508 L25.3818851,120.092508 C22.6196045,120.092508 20.3803336,117.84695 20.3803336,115.094277 L20.3803336,3.77003631 Z" id="Combined-Shape"></path>
                <path d="M5.33663365,10.431893 C5.23070693,3.84257554 20.3913208,3.7878223 20.3913208,3.77003631 C20.3913208,1.03503684 20.3913219,2.69834791 20.3913219,0.16014674 C8.63026765,0.564762417 0.00208539001,3.84257554 0.00208539001,10.431893 C1.39673941,10.4318934 2.89616627,10.431893 5.33663365,10.431893 Z" id="Oval-6"></path>
                <path d="M74.0090848,127.279121 C73.8927447,120.20712 90.5437616,120.116035 90.5437616,120.096946 C90.5437616,117.161601 90.5437619,118.979075 90.5437619,116.254945 C77.6265077,116.6892 68.1501104,120.20712 68.1501104,127.279121 C69.6818694,127.279121 71.3287011,127.279121 74.0090848,127.279121 Z" id="Oval-6-Copy"></path>
                <path d="M0,10.3656404 L64.3233366,10.3656404 C69.8489118,10.3656404 74.3282756,14.8477842 74.3282756,20.3580377 L74.3282756,130.285714 L0,130.285714 L0,10.3656404 Z M6.59363735,20.5588467 L68.3340599,20.5588467 L68.3340599,120.092508 L6.59363735,120.092508 L6.59363735,20.5588467 Z M17.3832258,14.562843 L57.5444715,14.562843 L57.5444715,17.5608448 L17.3832258,17.5608448 L17.3832258,14.562843 Z M31.169922,122.490909 L43.7577752,122.490909 L43.7577752,127.287712 L31.169922,127.287712 L31.169922,122.490909 Z" id="Combined-Shape"></path>
            </g>
            <text id="NarouTime" font-family="LucidaGrande, Lucida Grande" font-size="76" font-weight="normal" fill="#FFFFFF">
                <tspan x="379.307617" y="271">NarouTime</tspan>
            </text>
        </g>
    </g>
</svg>